<mxfile host="app.diagrams.net" modified="2023-08-10T22:22:17.462Z" agent="Mozilla/5.0 (Windows NT 10.0; Win64; x64) AppleWebKit/537.36 (KHTML, like Gecko) Chrome/115.0.0.0 Safari/537.36 Edg/115.0.1901.200" version="21.6.8" etag="Lvta4cxgz6gyAA1w9Cvb" type="github">
  <diagram name="PÃ¡gina-1" id="wD7PLpR7dVC9ufaaJFEN">
    <mxGraphModel>
      <root>
        <mxCell id="0" />
        <mxCell id="1" parent="0" />
      </root>
    </mxGraphModel>
  </diagram>
</mxfile>
